<?xml version="1.0" encoding="utf-8" ?>
<svg xmlns="http://www.w3.org/2000/svg" xmlns:xlink="http://www.w3.org/1999/xlink" width="738" height="771">
	<path fill="white" transform="scale(6.42118 6.42118)" d="M41.6993 92.7627L59.564 92.7462C62.5127 92.7394 65.665 92.5073 68.5933 92.7826C69.2382 92.8433 69.8197 92.9365 70.3608 93.315C70.673 93.76 70.866 93.9922 70.9109 94.5541C70.9924 95.5731 70.4892 96.3077 69.8531 97.0441Q69.7335 97.0662 69.613 97.0832C66.5964 97.5062 42.5514 97.6142 41.2086 96.5449C40.9184 96.3138 40.697 95.8113 40.6681 95.4479C40.5824 94.3682 41.0397 93.5701 41.6993 92.7627Z"/>
	<path fill="white" transform="scale(6.42118 6.42118)" d="M42.6471 99.087C48.1562 98.9102 53.6901 98.9923 59.2023 98.9846C62.2586 98.9803 65.6582 98.6974 68.6734 99.1185C69.5186 99.2365 69.8225 99.3082 70.4602 99.878C70.659 100.346 70.829 100.802 70.8377 101.316C70.845 101.746 70.7709 102.576 70.4524 102.901C69.4539 103.918 66.6824 103.66 65.2967 103.688C63.661 103.608 63.8234 104.162 62.6101 104.951C59.8121 106.772 56.2271 107.475 52.9492 106.775C51.0164 106.362 49.25 105.366 48.1666 103.695C46.3919 103.696 43.863 103.99 42.2211 103.393C41.6369 103.181 41.1182 102.799 40.8663 102.213C40.5456 101.466 40.6937 100.715 40.9695 99.9866C41.4113 99.4116 41.9845 99.2856 42.6471 99.087Z"/>
	<path fill="white" transform="scale(6.42118 6.42118)" d="M96.646 57.2426L96.7828 57.3211C96.8191 57.5005 96.8439 57.6922 96.7999 57.8725C96.4002 59.512 95.5489 61.1958 94.8512 62.7363C91.1916 70.8171 85.617 78.0435 77.8594 82.5316C71.6849 86.1038 64.104 88.0381 57.0755 86.1456C47.6246 83.601 39.8143 75.9226 35.0462 67.6218C33.2692 64.8655 31.9498 61.6928 30.6301 58.6993C32.9598 61.3587 35.3988 63.9155 38.0887 66.2143C45.81 72.8131 54.7877 76.7648 65.0729 75.9492C77.4519 74.9677 88.8003 66.4554 96.646 57.2426Z"/>
	<path fill="white" transform="scale(6.42118 6.42118)" d="M67.1445 10.5607C67.7082 10.663 68.2539 10.8269 68.8011 10.9941C79.3558 14.2189 90.0608 21.0672 95.3252 31.0031C98.1629 36.359 99.4705 42.7205 97.6508 48.6203C94.6735 58.2734 85.9238 65.0591 77.3482 69.5791C74.5808 70.93 71.7414 72.0768 68.8876 73.2298C71.7464 70.4312 74.9504 68.1072 77.6828 65.1382C83.538 58.7761 87.42 50.957 87.0447 42.1536C86.4464 28.1162 76.6993 19.3236 67.1445 10.5607Z"/>
	<path fill="white" transform="scale(6.42118 6.42118)" d="M50.161 9.34568C54.7764 8.49716 59.9466 9.72544 64.0287 11.886C74.8831 17.6312 80.7752 28.8642 84.2371 40.1569C77.0325 30.3586 68.7782 22.3504 56.3056 20.2736L56.187 20.2579C45.4917 18.8598 35.2454 22.7265 26.6266 28.8714C23.5824 31.0418 20.7804 33.5296 17.8196 35.8108C19.912 31.7206 22.222 27.6661 25.0852 24.064C31.495 16.0003 39.8208 10.5368 50.161 9.34568Z"/>
	<path fill="white" transform="scale(6.42118 6.42118)" d="M46.1066 22.7485L46.3749 22.8589C46.3605 22.9082 38.1471 29.9212 36.5282 31.6421C30.9057 37.6186 27.214 45.3541 27.4712 53.675C27.886 67.0974 37.2552 77.1048 46.4484 85.7642C43.6796 84.4931 40.8613 83.3639 38.125 82.0171C29.3814 77.9545 21.1192 70.4899 17.714 61.3236C15.6187 55.6832 15.3546 49.6227 17.899 44.0955C23.122 32.7495 34.9914 26.8415 46.1066 22.7485Z"/>
</svg>
