<?xml version="1.0" encoding="utf-8" ?>
<svg xmlns="http://www.w3.org/2000/svg" xmlns:xlink="http://www.w3.org/1999/xlink" width="1024" height="1024">
	<path fill="#FC612E" transform="scale(2 2)" d="M254.931 430.62C281.644 429.908 283.164 467.359 257.812 469.616C231.255 471.462 229.011 432.536 254.931 430.62Z"/>
	<path fill="#323EFF" transform="scale(2 2)" d="M253.425 306.278C268.175 305.229 265.721 317.465 265.726 327.59L265.733 383.206C265.732 391.854 268.855 406.677 258.934 409.623C242.546 413.693 246.249 391.715 246.246 382.721L246.245 328.075C246.247 319.954 243.901 309.755 253.425 306.278Z"/>
	<path fill="#FC612E" transform="scale(2 2)" d="M246.252 265.749C239.465 254.811 234.676 246.665 237.923 232.55C244.871 202.342 312.802 177.245 292.884 145.058C276.93 119.278 224.069 128.503 218.719 153.035C218.258 155.148 218.281 157.357 217.962 159.494C214.835 180.408 177.517 178.17 186.213 147.159C200.957 94.5814 295.522 84.2802 321.668 132.097C335.808 157.957 321.738 185.94 300.341 202.506C280.049 218.217 247.013 237.332 270.979 265.749C262.753 265.934 254.482 265.75 246.252 265.749Z"/>
	<path fill="#323EFF" transform="scale(2 2)" d="M251.834 38.6074C329.971 37.8287 399.613 92.1561 413.549 169.996C417.394 191.473 416.632 214.225 411.787 235.429C411.023 238.771 410.535 242.875 408.166 245.491C402.339 251.927 391.224 248.106 391.244 239.394C391.25 236.794 393.611 228.733 394.248 225.524C411.032 141.029 344.761 57.1838 258.934 57.2504C216.907 56.9191 173.422 75.3789 147.296 108.861C119.604 144.35 108.903 185.621 118.784 229.364C119.921 234.4 123.013 241.003 119.051 245.567C115.617 249.523 108.751 250.19 104.803 246.605C99.9492 242.198 96.5618 213.2 96.2399 205.785C92.3571 116.353 161.747 42.2616 251.834 38.6074Z"/>
	<path fill="#323EFF" transform="scale(2 2)" d="M270.979 265.749L318.302 265.742C328.842 265.742 340.433 264.906 350.778 266.912C378.732 272.334 402.555 295.118 405.877 324.054C409.015 351.384 392.77 382.436 363.645 385.646C337.731 388.502 314.196 368.089 311.485 342.463C310.881 336.749 309.924 313.774 313.434 309.619C318.44 303.692 327.777 305.875 329.709 313.177C331.104 318.445 329.754 331.405 330.108 337.945C331.526 364.141 361.785 376.016 378.98 355.976C394.295 338.126 387.443 311.346 370.532 297.17C353.256 282.687 338.032 284.737 317.113 284.747L182.147 284.742C177.54 284.739 172.902 284.609 168.311 285.032C142.538 287.409 122.147 312.784 124.719 338.374C127.083 361.89 153.973 373.933 171.596 358.445C190.219 342.078 175.312 319.113 183.946 308.916C187.126 305.16 193.987 305.455 197.437 308.641C201.846 312.712 200.286 326.083 200.265 331.625C200.206 347.162 198.818 357.757 187.211 369.713C169.329 388.134 138.642 388.613 120.371 370.54C87.1426 337.673 113.646 278.009 157.437 267.385C168.244 264.763 184.194 265.758 195.664 265.758L246.252 265.749C254.482 265.75 262.753 265.934 270.979 265.749Z"/>
</svg>
