<?xml version="1.0" encoding="utf-8" ?>
<svg xmlns="http://www.w3.org/2000/svg" xmlns:xlink="http://www.w3.org/1999/xlink" width="1024" height="1024">
	<defs>
		<linearGradient id="gradient_0" gradientUnits="userSpaceOnUse" x1="258.5361" y1="210.52287" x2="395.67294" y2="230.20987">
			<stop offset="0" stop-color="#33138A"/>
			<stop offset="1" stop-color="#521ED0"/>
		</linearGradient>
	</defs>
	<path fill="url(#gradient_0)" transform="scale(2 2)" d="M282.723 48.2417C375.361 66.5307 429.825 170.48 384.671 255.204C370.617 281.574 371.996 272.925 372.008 304.021L372.004 344.383C372.002 351.542 372.652 359.276 370.596 366.2C363.18 391.179 330.278 395.642 316.47 374.01C311.711 366.553 311.546 359.019 311.763 350.482C317.607 350.362 322.422 350.246 327.993 352.293C327.917 350.99 327.931 349.732 327.993 348.431C328.455 352.332 327.551 356.357 328.25 360.28C329.639 368.075 337.46 373.235 345.125 371.327C358.312 368.043 355.999 352.266 355.986 342.08L355.978 304.011C355.981 277.333 355.164 274.165 369.043 250.358C398.949 199.058 383.805 132.132 340.33 93.4738C336.73 90.2731 332.94 86.723 328.754 84.3039C313.823 73.3787 297.235 67.4714 279.326 63.6459C286.702 58.9468 283.262 56.9252 284.218 50.7254L284.987 50.478L285.154 50.1368L284.868 49.6507C283.633 49.4936 283.213 49.4874 282.723 48.2417Z"/>
	<path fill="#000319" transform="scale(2 2)" d="M250.158 45.7519C260.732 45.2273 272.379 46.0113 282.723 48.2417C283.213 49.4874 283.633 49.4936 284.868 49.6507L285.154 50.1368L284.987 50.478L284.218 50.7254C283.262 56.9252 286.702 58.9468 279.326 63.6459C268.301 61.5572 258.794 61.7425 247.756 61.4923C240.13 62.436 232.603 63.3845 225.135 65.242C171.279 78.6389 131.298 126.561 128.188 182.045C127.963 186.052 126.857 191.303 127.969 195.185C129.163 219.396 136.311 239.099 148.905 259.316C156.755 271.919 155.443 286.226 155.442 300.406L155.444 344.702C155.444 353.752 152.906 370.543 160.017 377.019C165.304 381.833 174.335 381.314 179.057 375.947C183.695 370.675 182.723 363.274 182.712 356.792L182.687 339.02C182.677 326.283 183.322 315.024 194.297 306.586C204.787 298.522 220.476 298.379 230.665 307.123C240.673 315.713 240.765 324.163 240.766 335.899L240.744 424.662C240.745 428.35 240.485 432.233 241.142 435.869C242.952 445.876 256.283 448.011 262.251 440.52C265.893 435.949 264.703 427.294 264.706 421.644L264.697 356.943C264.701 353.777 264.581 350.548 264.873 347.395C268.305 310.303 323.716 309.817 327.993 348.431C327.931 349.732 327.917 350.99 327.993 352.293C322.422 350.246 317.607 350.362 311.763 350.482C311.074 334.091 287.882 329.573 281.796 344.719C279.885 349.474 280.743 358.663 280.753 364.023L280.744 413.195C280.745 420.208 281.429 433.032 280.138 439.451C274.322 468.369 231.685 468.556 225.37 438.811C224.716 435.73 225.035 432.166 225.034 429.013L225.014 354.751C225.014 345.327 227.467 325.423 220.575 319.726C213.075 313.527 201.362 316.651 199.072 326.564C198.323 329.807 198.719 333.793 198.72 337.104L198.742 357.642C198.749 362.608 199.171 367.917 198.142 372.796C191.956 402.142 148.627 404.497 141.112 375.813C139.047 367.931 139.881 352.541 139.882 343.693L139.889 298.655C139.889 272.93 140.338 279.111 128.718 256.96C83.8155 171.363 134.352 66.7508 229.198 48.3151C236.144 46.9649 243.122 46.3791 250.158 45.7519Z"/>
	<path fill="#2C167C" transform="scale(2 2)" d="M250.158 45.7519C260.732 45.2273 272.379 46.0113 282.723 48.2417C283.213 49.4874 283.633 49.4936 284.868 49.6507L285.154 50.1368L284.987 50.478L284.218 50.7254C283.262 56.9252 286.702 58.9468 279.326 63.6459C268.301 61.5572 258.794 61.7425 247.756 61.4923C251.721 60.1399 262.707 60.9785 267.125 61.4088C277.042 62.3746 279.715 59.866 278.341 49.3626L279.027 49.2563L279.145 48.9375C277.827 48.7617 277.039 48.1834 275.881 47.6108C274.18 47.8036 251.84 46.0075 250.158 45.7519Z"/>
	<path fill="#000319" transform="scale(2 2)" d="M254.393 260.567C265.724 259.802 266.998 277.459 256.377 280.237C244.998 280.391 244.264 263.138 254.393 260.567Z"/>
	<path fill="#000319" transform="scale(2 2)" d="M238.245 119.247L238.579 119.275C241.294 119.477 244.038 119.264 246.759 119.247L262.237 119.239C275.672 119.238 285.004 120.132 296.05 128.607C318.773 148.53 317.963 180.77 294.076 200.285C280.967 210.995 267.687 215.49 264.432 234.749C263.327 241.285 261.701 251.677 251.9 247.054C245.455 244.013 248.159 235.263 249.485 230.04C258.435 194.78 284.965 196.531 294.584 175.11C300.873 161.105 294.653 143.522 280.366 137.338C272.548 133.954 250.525 133.708 241.339 134.776C228.565 136.26 217.962 147.105 215.911 159.697C215.426 162.67 215.819 166.336 214.543 169.093C211.825 174.961 202.414 173.544 200.591 167.661C198.585 161.19 202.331 149.131 205.44 143.301C212.926 129.26 223.624 123.678 238.245 119.247Z"/>
	<path fill="#A784F9" transform="scale(2 2)" d="M247.756 61.4923C258.794 61.7425 268.301 61.5572 279.326 63.6459C297.235 67.4714 313.823 73.3787 328.754 84.3039C328.899 87.0475 329.815 89.6698 329.981 92.405C330.929 107.981 319.083 124.22 303.683 127.531C301.16 128.074 298.57 128.135 296.05 128.607C285.004 120.132 275.672 119.238 262.237 119.239L246.759 119.247C244.038 119.264 241.294 119.477 238.579 119.275L238.245 119.247C234.575 117.653 217.788 121.685 214.205 123.107C195.473 130.542 184.251 148.994 183.105 168.644C182.801 173.845 183.74 179.035 183.444 184.242C182.337 203.678 161.039 217.282 143.124 209.431C133.627 205.269 129.694 195.799 128.121 194.944L127.969 195.185C126.857 191.303 127.963 186.052 128.188 182.045C131.298 126.561 171.279 78.6389 225.135 65.242C232.603 63.3845 240.13 62.436 247.756 61.4923Z"/>
</svg>
